<svg width="200" height="200" viewBox="0 -21 200 221" xmlns="http://www.w3.org/2000/svg"
    preserveAspectRatio="xMidYMid meet">
    <g>
        <title>background</title>
        <rect fill="none" id="canvas_background" height="402" width="582" y="-1" x="-1" />
    </g>
    <g>
        <title>Dashboard Arc</title>
        <g id="svg_7" fill="black" opacity="0.8" transform="rotate(180) translate(-170,32) scale(0.29, -0.28)">
            <path d="M492.719,207.208c-0.108-0.575-0.27-1.146-0.492-1.702c-0.223-0.558-0.507-1.069-0.837-1.537
				c-12.787-30.616-31.365-58.265-54.348-81.565c-0.324-0.482-0.701-0.944-1.135-1.378s-0.896-0.811-1.378-1.135
				C388.233,74.226,324.764,45.933,255,45.933c-33.418,0-65.389,6.5-94.725,18.281c-0.575,0.108-1.146,0.27-1.701,0.492
				c-0.557,0.223-1.069,0.507-1.537,0.837c-30.616,12.787-58.265,31.365-81.565,54.348c-0.482,0.324-0.944,0.701-1.378,1.135
				s-0.812,0.896-1.135,1.378C27.293,168.7-1,232.169-1,301.933c0,58.027,18.773,113.493,55.467,158.72
				c1.707,2.56,4.267,3.413,6.827,3.413h387.413c2.56,0,5.12-0.853,6.827-3.413C492.227,415.427,511,359.96,511,301.933
				C511,268.515,504.5,236.544,492.719,207.208z M445.293,447H65.56c-11.539-14.88-21.122-30.844-28.695-47.616l23.575-9.557
				c4.267-1.707,5.973-6.827,4.267-11.093c-1.707-4.267-6.827-5.973-11.093-4.267l-23.11,9.369
				c-8.574-23.342-13.394-48.021-14.278-73.369H75.8c5.12,0,8.533-3.413,8.533-8.533S80.92,293.4,75.8,293.4H16.237
				c0.957-26.907,6.416-52.715,15.648-76.694L55.32,226.84c0.853,0.853,2.56,0.853,3.413,0.853c3.413,0,5.973-1.707,7.68-5.12
				c1.707-4.267,0-9.387-4.267-11.093l-23.672-10.237c10.699-22.831,24.906-43.721,41.922-61.967l17.59,17.59
				c1.707,1.707,3.413,2.56,5.973,2.56s4.267-0.853,5.973-2.56c3.413-3.413,3.413-8.533,0-11.947l-17.59-17.59
				c19.117-17.828,41.131-32.581,65.244-43.438l9.52,23.482c0.853,3.413,4.267,5.12,7.68,5.12c0.853,0,1.707,0,3.413-0.853
				c4.267-1.707,5.973-6.827,4.267-11.093l-9.329-23.012c23.021-8.463,47.679-13.452,73.329-14.364v59.563
				c0,5.12,3.413,8.533,8.533,8.533s8.533-3.413,8.533-8.533V63.17c26.907,0.957,52.715,6.416,76.694,15.648l-10.134,23.436
				c-1.707,4.267,0,9.387,4.267,11.093c0.853,0.853,2.56,0.853,3.413,0.853c3.413,0,6.827-2.56,7.68-5.12l10.237-23.672
				c22.831,10.699,43.721,24.906,61.967,41.922l-17.59,17.59c-3.413,3.413-3.413,8.533,0,11.947c1.707,1.707,3.413,2.56,5.973,2.56
				c1.707,0,4.267-0.853,5.973-2.56l17.59-17.59c17.828,19.117,32.581,41.131,43.438,65.244l-23.482,9.52
				c-4.267,1.707-5.973,6.827-4.267,11.093c0.853,3.413,4.267,5.12,7.68,5.12c0.853,0,1.707-0.853,3.413-0.853l23.013-9.329
				c8.463,23.021,13.452,47.679,14.364,73.329H434.2c-5.12,0-8.533,3.413-8.533,8.533s3.413,8.533,8.533,8.533h59.575
				c-0.927,26.593-6.172,52.45-15.418,76.799l-23.677-10.239c-4.267-1.707-9.387,0-11.093,4.267c-1.707,4.267,0,9.387,4.267,11.093
				l23.981,10.37C464.644,418.298,455.773,433.121,445.293,447z" />
        </g>
    </g>
    <g>
        <title>Main Icon</title>
        <g id="svg_1" fill="#000000" transform="translate(0, 200) scale(0.1, -0.1)">
            <path fill="#84D3DB" id="svg_2"
                d="m1369.99536,994.72168c-75,-21.00024 -101,-34.00024 -161,-80.00024c-68,-51.99976 -135,-150.99976 -153,-222.99976l-6,-28l150,0l150,0l0,60c0,33 4,60 9,60c5,0 43,-20 85,-45c42,-24 106,-61 143,-81c81,-45.00006 143,-83.00006 143,-88.00006c0,-3 -24,-18 -52,-33c-71,-39 -116,-65 -225,-129c-51,-30 -94,-54 -97,-54c-3,0 -6,29 -6,65l0,65l-151,0c-166,0 -152,6 -133,-61c14,-50 82,-144.99988 135,-188.99988c87,-72 151,-94 279,-95c88,0 115,4 163,23c119,48 224,165.99988 261,290.99988c30,102 13,250.00006 -36,323.00006c-10,14 -18,31 -18,36c0,16 -127,129.99976 -168,150.99976c-49,24 -158,51.00024 -208,50.00024c-21,0 -68,-8 -104,-18z" />
        </g>
        <g id="svg_4" fill="#000000" transform="rotate(-120, 96.4437, 55.2508) translate(0, 200) scale(0.1, -0.1)">
            <path fill="#FFB27C" id="svg_3"
                d="m849.99731,1866.47681c-75,-21 -101,-34 -161,-80c-68,-52 -135,-150.99988 -153,-222.99988l-6,-28l150,0l150,0l0,60c0,33 4,59.99988 9,59.99988c5,0 43,-19.99988 85,-44.99988c42,-24 105.99805,-61 142.99805,-81c81,-45 143,-83 143,-88c0,-3 -24,-18 -52,-33c-71,-39 -116,-65 -224.99805,-129c-51,-30 -94,-54 -97,-54c-3,0 -6,29 -6,65l0,65l-151,0c-166,0 -152,6 -133,-61c14,-50 82,-145 135,-189c87,-72 151,-93.99939 279,-94.99939c87.99805,0 114.99805,4 162.99805,22.99939c119,48 224,166 261,291c30,102 13,250 -36,322.99988c-10,14 -18,31 -18,36c0,16 -127,130 -168,151c-49,24 -158,51 -207.99805,50c-21,0 -68,-8 -104,-18z" />
        </g>
        <g id="svg_6" fill="#000000" transform="rotate(120, 50.1463, 142.426) translate(0, 200) scale(0.1, -0.1)">
            <path fill="#A0D58A" id="svg_5"
                d="m387.00516,994.72168c-75,-21.00024 -101,-34.00024 -161,-80.00024c-68,-51.99976 -135,-150.99976 -153,-222.99976l-6,-28l150,0l150,0l0,60c0,33 4,60 9,60c5,0 43,-20 85,-45c42,-24 105.99997,-61 142.99997,-81c81,-45.00006 143,-83.00006 143,-88.00006c0,-3 -24,-18 -52,-33c-71,-39 -116,-65 -224.99997,-129c-51,-30 -94,-54 -97,-54c-3,0 -6,29 -6,65l0,65l-151,0c-166,0 -152,6 -133,-61c14,-50 82,-144.99988 135,-188.99988c87,-72 151,-94 279,-95c87.99997,0 114.99997,4 162.99997,23c119,48 224,165.99988 261,290.99988c30,102 13,250.00006 -36,323.00006c-10,14 -18,31 -18,36c0,16 -127,129.99976 -168,150.99976c-49,24 -158,51.00024 -207.99997,50.00024c-21,0 -68,-8 -104,-18z" />
        </g>
    </g>
</svg>