<svg width="200" height="200" viewBox="0 0 200 200" xmlns="http://www.w3.org/2000/svg" preserveAspectRatio="xMidYMid meet">
<!-- created using https://editor.method.ac -->
 <g>
  <title>background</title>
  <rect fill="none" id="canvas_background" height="402" width="582" y="-1" x="-1"/>
 </g>
 <g>
  <title>Layer 1</title>
  <g id="svg_1" fill="#000000" transform="translate(0, 200) scale(0.1, -0.1)">
   <path fill="#84D3DB" id="svg_2" d="m1369.99536,994.72168c-75,-21.00024 -101,-34.00024 -161,-80.00024c-68,-51.99976 -135,-150.99976 -153,-222.99976l-6,-28l150,0l150,0l0,60c0,33 4,60 9,60c5,0 43,-20 85,-45c42,-24 106,-61 143,-81c81,-45.00006 143,-83.00006 143,-88.00006c0,-3 -24,-18 -52,-33c-71,-39 -116,-65 -225,-129c-51,-30 -94,-54 -97,-54c-3,0 -6,29 -6,65l0,65l-151,0c-166,0 -152,6 -133,-61c14,-50 82,-144.99988 135,-188.99988c87,-72 151,-94 279,-95c88,0 115,4 163,23c119,48 224,165.99988 261,290.99988c30,102 13,250.00006 -36,323.00006c-10,14 -18,31 -18,36c0,16 -127,129.99976 -168,150.99976c-49,24 -158,51.00024 -208,50.00024c-21,0 -68,-8 -104,-18z"/>
  </g>
  <g id="svg_4" fill="#000000" transform="rotate(-120, 96.4437, 55.2508) translate(0, 200) scale(0.1, -0.1)">
   <path fill="#FFB27C" id="svg_3" d="m849.99731,1866.47681c-75,-21 -101,-34 -161,-80c-68,-52 -135,-150.99988 -153,-222.99988l-6,-28l150,0l150,0l0,60c0,33 4,59.99988 9,59.99988c5,0 43,-19.99988 85,-44.99988c42,-24 105.99805,-61 142.99805,-81c81,-45 143,-83 143,-88c0,-3 -24,-18 -52,-33c-71,-39 -116,-65 -224.99805,-129c-51,-30 -94,-54 -97,-54c-3,0 -6,29 -6,65l0,65l-151,0c-166,0 -152,6 -133,-61c14,-50 82,-145 135,-189c87,-72 151,-93.99939 279,-94.99939c87.99805,0 114.99805,4 162.99805,22.99939c119,48 224,166 261,291c30,102 13,250 -36,322.99988c-10,14 -18,31 -18,36c0,16 -127,130 -168,151c-49,24 -158,51 -207.99805,50c-21,0 -68,-8 -104,-18z"/>
  </g>
  <g id="svg_6" fill="#000000" transform="rotate(120, 50.1463, 142.426) translate(0, 200) scale(0.1, -0.1)">
   <path fill="#A0D58A" id="svg_5" d="m387.00516,994.72168c-75,-21.00024 -101,-34.00024 -161,-80.00024c-68,-51.99976 -135,-150.99976 -153,-222.99976l-6,-28l150,0l150,0l0,60c0,33 4,60 9,60c5,0 43,-20 85,-45c42,-24 105.99997,-61 142.99997,-81c81,-45.00006 143,-83.00006 143,-88.00006c0,-3 -24,-18 -52,-33c-71,-39 -116,-65 -224.99997,-129c-51,-30 -94,-54 -97,-54c-3,0 -6,29 -6,65l0,65l-151,0c-166,0 -152,6 -133,-61c14,-50 82,-144.99988 135,-188.99988c87,-72 151,-94 279,-95c87.99997,0 114.99997,4 162.99997,23c119,48 224,165.99988 261,290.99988c30,102 13,250.00006 -36,323.00006c-10,14 -18,31 -18,36c0,16 -127,129.99976 -168,150.99976c-49,24 -158,51.00024 -207.99997,50.00024c-21,0 -68,-8 -104,-18z"/>
  </g>
 </g>
</svg>
